<svg width="21" height="24" viewBox="0 0 21 24" fill="none" xmlns="http://www.w3.org/2000/svg">
<path d="M5.55882 14.5109C5.25638 14.5109 4.99862 14.4027 4.78553 14.1864C4.57265 13.9698 4.46621 13.7078 4.46621 13.4004C4.46621 13.093 4.57265 12.831 4.78553 12.6144C4.99862 12.3979 5.25638 12.2896 5.55882 12.2896C5.86126 12.2896 6.11903 12.3979 6.33212 12.6144C6.545 12.831 6.65144 13.093 6.65144 13.4004C6.65144 13.7078 6.545 13.9698 6.33212 14.1864C6.11903 14.4027 5.86126 14.5109 5.55882 14.5109ZM10.5 14.5109C10.1976 14.5109 9.93979 14.4027 9.72671 14.1864C9.51382 13.9698 9.40738 13.7078 9.40738 13.4004C9.40738 13.093 9.51382 12.831 9.72671 12.6144C9.93979 12.3979 10.1976 12.2896 10.5 12.2896C10.8024 12.2896 11.0602 12.3979 11.2733 12.6144C11.4862 12.831 11.5926 13.093 11.5926 13.4004C11.5926 13.7078 11.4862 13.9698 11.2733 14.1864C11.0602 14.4027 10.8024 14.5109 10.5 14.5109ZM15.4412 14.5109C15.1387 14.5109 14.881 14.4027 14.6679 14.1864C14.455 13.9698 14.3486 13.7078 14.3486 13.4004C14.3486 13.093 14.455 12.831 14.6679 12.6144C14.881 12.3979 15.1387 12.2896 15.4412 12.2896C15.7436 12.2896 16.0014 12.3979 16.2145 12.6144C16.4274 12.831 16.5338 13.093 16.5338 13.4004C16.5338 13.7078 16.4274 13.9698 16.2145 14.1864C16.0014 14.4027 15.7436 14.5109 15.4412 14.5109ZM2.2331 24C1.60907 24 1.08088 23.7803 0.648529 23.3408C0.216177 22.9014 0 22.3646 0 21.7303V4.92549C0 4.29123 0.216177 3.75438 0.648529 3.31494C1.08088 2.8755 1.60907 2.65578 2.2331 2.65578H3.94337V0.965512C3.94337 0.690339 4.03406 0.460574 4.21544 0.276219C4.39682 0.0920727 4.62288 0 4.89362 0C5.16456 0 5.39062 0.0920727 5.57179 0.276219C5.75318 0.460574 5.84387 0.690339 5.84387 0.965512V2.65578H15.2037V0.941657C15.2037 0.674435 15.2923 0.450635 15.4696 0.270255C15.6471 0.0900847 15.8672 0 16.1302 0C16.3931 0 16.6132 0.0900847 16.7904 0.270255C16.9679 0.450635 17.0566 0.674435 17.0566 0.941657V2.65578H18.7669C19.3909 2.65578 19.9191 2.8755 20.3515 3.31494C20.7838 3.75438 21 4.29123 21 4.92549V21.7303C21 22.3646 20.7838 22.9014 20.3515 23.3408C19.9191 23.7803 19.3909 24 18.7669 24H2.2331ZM2.2331 22.1167H18.7669C18.862 22.1167 18.9491 22.0764 19.0282 21.9958C19.1074 21.9155 19.1471 21.827 19.1471 21.7303V9.94766H1.85294V21.7303C1.85294 21.827 1.89257 21.9155 1.97184 21.9958C2.0509 22.0764 2.13799 22.1167 2.2331 22.1167ZM1.85294 8.06435H19.1471V4.92549C19.1471 4.82881 19.1074 4.7403 19.0282 4.65994C18.9491 4.57938 18.862 4.5391 18.7669 4.5391H2.2331C2.13799 4.5391 2.0509 4.57938 1.97184 4.65994C1.89257 4.7403 1.85294 4.82881 1.85294 4.92549V8.06435Z" fill="#1C1B1F"/>
</svg>
