<svg width="23" height="24" viewBox="0 0 23 24" fill="none" xmlns="http://www.w3.org/2000/svg">
<path d="M10.0843 24C9.64852 24 9.27215 23.8571 8.95521 23.5712C8.63806 23.2855 8.44508 22.9337 8.37628 22.5158L8.06413 20.1521C7.72185 20.0388 7.37083 19.8802 7.01107 19.6762C6.65153 19.472 6.33001 19.2534 6.04651 19.0203L3.83208 19.9506C3.43058 20.1256 3.02716 20.1425 2.62183 20.0015C2.21628 19.8606 1.90126 19.6048 1.67676 19.2341L0.236465 16.7659C0.0119653 16.3952 -0.0526795 16.0028 0.0425305 15.5889C0.137528 15.1753 0.355424 14.834 0.696221 14.5652L2.61064 13.1441C2.58125 12.9563 2.56038 12.7677 2.54802 12.5782C2.53567 12.3887 2.52949 12.2 2.52949 12.012C2.52949 11.8324 2.53567 11.6499 2.54802 11.4644C2.56038 11.2789 2.58125 11.0761 2.61064 10.8559L0.696221 9.43484C0.355424 9.166 0.139551 8.82263 0.048601 8.40474C-0.042349 7.98705 0.0244257 7.59274 0.248925 7.22179L1.67676 4.79021C1.90126 4.42747 2.21628 4.17368 2.62183 4.02884C3.02716 3.88379 3.43058 3.89874 3.83208 4.07368L6.03405 4.992C6.34226 4.75074 6.67123 4.53011 7.02098 4.3301C7.37072 4.13011 7.71439 3.96937 8.05199 3.84789L8.37628 1.48421C8.44508 1.06632 8.63806 0.714527 8.95521 0.428843C9.27215 0.142948 9.64852 0 10.0843 0H12.9157C13.3515 0 13.7279 0.142948 14.0448 0.428843C14.3619 0.714527 14.5549 1.06632 14.6237 1.48421L14.9359 3.85989C15.3193 3.99758 15.6661 4.15832 15.9765 4.3421C16.287 4.52589 16.6004 4.74253 16.9167 4.992L19.1804 4.07368C19.5817 3.89874 19.9851 3.88379 20.3906 4.02884C20.7962 4.17368 21.1111 4.42747 21.3354 4.79021L22.7635 7.23411C22.988 7.60484 23.0527 7.99716 22.9575 8.41105C22.8625 8.82474 22.6446 9.166 22.3038 9.43484L20.3402 10.8922C20.3859 11.0962 20.411 11.2869 20.4152 11.4644C20.4193 11.6417 20.4213 11.8202 20.4213 12C20.4213 12.1716 20.4172 12.3461 20.4088 12.5236C20.4008 12.7008 20.3714 12.9037 20.3207 13.1321L22.2472 14.5652C22.588 14.834 22.8081 15.1753 22.9073 15.5889C23.0064 16.0028 22.9436 16.3952 22.7191 16.7659L21.2715 19.2218C21.0472 19.5927 20.7303 19.8486 20.3207 19.9895C19.9111 20.1303 19.5055 20.1133 19.104 19.9383L16.9167 19.008C16.6004 19.2575 16.2776 19.4781 15.9484 19.6699C15.6191 19.8619 15.2816 20.0186 14.9359 20.1401L14.6237 22.5158C14.5549 22.9337 14.3619 23.2855 14.0448 23.5712C13.7279 23.8571 13.3515 24 12.9157 24H10.0843ZM10.222 22.1053H12.7339L13.1933 18.7216C13.8455 18.5532 14.4415 18.3139 14.9812 18.0038C15.5212 17.6935 16.0419 17.2946 16.5433 16.8073L19.7184 18.1263L20.9769 15.9789L18.2046 13.9143C18.3111 13.5872 18.3836 13.2664 18.4219 12.9521C18.4604 12.638 18.4797 12.3206 18.4797 12C18.4797 11.6712 18.4604 11.3538 18.4219 11.0479C18.3836 10.7418 18.3111 10.4292 18.2046 10.11L21.0012 8.02105L19.743 5.87368L16.5308 7.212C16.1031 6.76021 15.5907 6.36105 14.9937 6.01453C14.3965 5.668 13.7923 5.42263 13.1812 5.27842L12.778 1.89474H10.2418L9.81881 5.26642C9.16682 5.41863 8.56479 5.65179 8.01269 5.96589C7.46039 6.28021 6.93354 6.68505 6.43214 7.18042L3.25699 5.87368L1.99881 8.02105L4.75862 10.0541C4.65212 10.3539 4.57757 10.6657 4.53497 10.9895C4.49237 11.3133 4.47107 11.6541 4.47107 12.012C4.47107 12.3408 4.49237 12.6632 4.53497 12.9789C4.57757 13.2947 4.64808 13.6065 4.74648 13.9143L1.99881 15.9789L3.25699 18.1263L6.42 16.8C6.905 17.2922 7.42354 17.6955 7.97563 18.0098C8.52794 18.3239 9.13828 18.5652 9.80667 18.7336L10.222 22.1053ZM11.5147 15.7895C12.578 15.7895 13.4828 15.4206 14.2291 14.6829C14.9755 13.9453 15.3487 13.0509 15.3487 12C15.3487 10.9491 14.9755 10.0547 14.2291 9.31705C13.4828 8.57937 12.578 8.21053 11.5147 8.21053C10.4382 8.21053 9.53009 8.57937 8.79035 9.31705C8.05061 10.0547 7.68074 10.9491 7.68074 12C7.68074 13.0509 8.05061 13.9453 8.79035 14.6829C9.53009 15.4206 10.4382 15.7895 11.5147 15.7895Z" fill="#1C1B1F"/>
</svg>
