<svg width="25" height="24" viewBox="0 0 25 24" fill="none" xmlns="http://www.w3.org/2000/svg">
<path d="M4.93421 14.9448H14.8026V12.974H4.93421V14.9448ZM4.93421 11.0033H20.0658V9.03256H4.93421V11.0033ZM4.93421 7.06182H20.0658V5.09108H4.93421V7.06182ZM2.37862 20.0359C1.72445 20.0359 1.16447 19.8033 0.698684 19.3382C0.232895 18.8731 0 18.314 0 17.6608V2.37507C0 1.72188 0.232895 1.16274 0.698684 0.697642C1.16447 0.232547 1.72445 0 2.37862 0H22.6214C23.2755 0 23.8355 0.232547 24.3013 0.697642C24.7671 1.16274 25 1.72188 25 2.37507V17.6608C25 18.314 24.7671 18.8731 24.3013 19.3382C23.8355 19.8033 23.2755 20.0359 22.6214 20.0359H15.7668L13.4842 23.4594C13.3649 23.6396 13.2207 23.7748 13.0516 23.865C12.8828 23.955 12.6989 24 12.5 24C12.3011 24 12.1172 23.955 11.9484 23.865C11.7793 23.7748 11.6351 23.6396 11.5158 23.4594L9.23322 20.0359H2.37862ZM12.5 21.4078L14.7066 18.0651H22.6214C22.7396 18.0651 22.8366 18.0272 22.9125 17.9515C22.9884 17.8757 23.0263 17.7788 23.0263 17.6608V2.37507C23.0263 2.25704 22.9884 2.16015 22.9125 2.08439C22.8366 2.00862 22.7396 1.97074 22.6214 1.97074H2.37862C2.26042 1.97074 2.16338 2.00862 2.0875 2.08439C2.01162 2.16015 1.97368 2.25704 1.97368 2.37507V17.6608C1.97368 17.7788 2.01162 17.8757 2.0875 17.9515C2.16338 18.0272 2.26042 18.0651 2.37862 18.0651H10.2934L12.5 21.4078Z" fill="#1C1B1F"/>
</svg>
